<?xml version="1.0" encoding="utf-8"?>
<!-- Generator: Adobe Illustrator 23.0.6, SVG Export Plug-In . SVG Version: 6.00 Build 0)  -->
<svg version="1.1" id="Layer_1" xmlns="http://www.w3.org/2000/svg" xmlns:xlink="http://www.w3.org/1999/xlink" x="0px" y="0px"
	 viewBox="0 0 243.3 191.6" style="enable-background:new 0 0 243.3 191.6;" xml:space="preserve">
<style type="text/css">
	.st0{fill:#FF8937;}
	.st1{fill:#0268A7;}
	.st2{fill:#575757;}
</style>
<g>
	<path class="st0" d="M55.3,156.9h-4.4c-0.6,0-1-0.2-1.1-0.9l-1.1-7.3h-5.3l-1.1,7.3c-0.1,0.7-0.5,0.9-1.1,0.9h-4.4
		c-0.6,0-1-0.4-1-1c0-0.5,0.2-1.4,0.3-2.1l6.2-31.5c0.1-0.7,0.5-1,1.1-1h5.2c0.6,0,1,0.3,1.1,1l6.2,31.5c0.1,0.7,0.3,1.6,0.3,2.1
		C56.3,156.5,55.9,156.9,55.3,156.9z M47,136.9c-0.2-1.3-0.6-5.3-0.6-5.8s-0.1-0.6-0.3-0.6s-0.3,0.2-0.3,0.6s-0.3,4.5-0.6,5.8
		l-1.1,7h4L47,136.9z"/>
	<path class="st0" d="M86.6,156.9h-4.7c-0.6,0-1.1-0.4-1.1-1.1V137c0-1.4-0.6-1.9-1.7-1.9c-0.7,0-1.7,0.2-2.6,0.7v20.1
		c0,0.6-0.4,1.1-1.1,1.1h-4.7c-0.6,0-1.1-0.4-1.1-1.1V137c0-1.4-0.6-1.9-1.7-1.9c-0.7,0-1.7,0.2-2.6,0.7v20.1c0,0.6-0.4,1.1-1.1,1.1
		h-4.7c-0.6,0-1.1-0.4-1.1-1.1v-24.5c0-0.6,0.4-1.1,1.1-1.1h2.7c1.3,0,2.5,0.6,2.9,1.9c1.1-1.1,2.8-2.2,5.4-2.2c2.5,0,4.1,0.9,5,2.5
		c1.6-1.4,3.4-2.5,6.2-2.5c4,0,5.9,2.4,5.9,6.9v19C87.7,156.4,87.2,156.9,86.6,156.9z"/>
	<path class="st0" d="M90.3,149.1c0-1,0.7-1.3,1.3-1.3H95c0.8,0,1.1,0.4,1,1.5c-0.1,1.6,0.3,3.1,2,3.1c1.8,0,2.2-1.2,2.2-2.9
		c0-2.1-1.6-3.3-3.8-4.2c-3.9-1.5-5.9-4-5.9-7.5c0-5.7,3.3-7.8,8.3-7.8c5.1,0,7.7,2.4,7.7,7.5c0,1-0.7,1.3-1.3,1.3h-3.3
		c-0.8,0-1.1-0.4-1-1.4c0.1-1.2-0.1-2.5-1.9-2.5c-1.6,0-2.1,1.2-2.1,2.4c0,1.6,0.9,2.8,3.3,3.7c4.2,1.6,6.4,4.2,6.4,7.5
		c0,5.8-2.7,8.7-8.4,8.7C93,157.2,90.3,154.8,90.3,149.1z"/>
	<path class="st0" d="M117.3,150.5c0,1.3,0.3,1.8,1.3,1.8c0.5,0,0.8-0.1,1.3-0.3c0.3-0.1,0.6-0.2,0.8-0.2c0.4,0,0.7,0.2,0.7,0.9v1.1
		c0,1.2-0.3,1.8-0.9,2.2c-1.5,0.9-2.9,1.3-5,1.3c-3.3,0-5.1-1.7-5.1-5.2v-17.3h-1.9c-0.6,0-1.1-0.4-1.1-1.1v-2.4
		c0-0.6,0.4-1.1,1.1-1.1h1.9v-5.4c0-0.6,0.4-1.1,1.1-1.1h4.7c0.6,0,1.1,0.4,1.1,1.1v5.4h2.8c0.6,0,1.1,0.4,1.1,1.1v2.4
		c0,0.6-0.4,1.1-1.1,1.1h-2.8V150.5z"/>
	<path class="st0" d="M139.7,140c0,1.3-0.1,3.4-0.3,4.5h-9.9c0,5.7,0.2,7.8,2.3,7.8c1.8,0,2-1.9,1.9-2.8c-0.1-1.1,0.2-1.5,1-1.5h3.6
		c0.7,0,1.3,0.3,1.3,1.3c0,5.2-2.9,7.9-8,7.9c-6.5,0-9-5-9-13.6s2.5-13.6,9.1-13.6C136.8,129.9,139.7,133.3,139.7,140z M131.7,134.8
		c-1.8,0-2.2,1.6-2.2,5.9h4.2c0.1-0.5,0.1-1.2,0.1-2.1C133.8,136.4,133.5,134.8,131.7,134.8z"/>
</g>
<g>
	<path class="st1" d="M145.4,155.8v-33.4c0-0.6,0.4-1.1,1.1-1.1h5.4c6.2,0,8,3.8,8,10.3c0,5.5-1.6,8.9-5.2,10
		c1.1,0.4,1.8,1.3,2.3,2.9l2.9,9.1c0.2,0.6,0.4,1.1,0.8,1.3c0.5,0.3,0.7,0.5,0.7,0.9c0,0.6-0.4,1-1,1h-1.6c-2,0-2.4-0.7-3.3-3.7
		l-3.1-10.1c-0.3-0.8-0.7-1.1-1.6-1.1h-1.4v13.9c0,0.6-0.4,1.1-1.1,1.1h-2C145.9,156.9,145.4,156.4,145.4,155.8z M151.8,138.6
		c2.9,0,4-2.2,4-7c0-4.6-0.9-6.9-4.4-6.9h-1.9v14h2.3V138.6z"/>
	<path class="st1" d="M163.3,151.2v-19.8c0-0.6,0.4-1.1,1.1-1.1h1.7c0.6,0,1.1,0.4,1.1,1.1v19.8c0,1.6,0.6,2.6,2.3,2.6
		c1,0,2.5-0.4,3.7-1v-21.4c0-0.6,0.4-1.1,1.1-1.1h1.7c0.6,0,1.1,0.4,1.1,1.1V153c0,1.3,0.4,1.8,1.4,1.8v0.7c0,0.8-0.8,1.7-2.7,1.7
		c-1.1,0-1.9-0.4-2.2-1.7c-1.3,1-3.1,1.7-4.9,1.7C165.6,157.2,163.3,155.7,163.3,151.2z"/>
	<path class="st1" d="M181.2,155.8v-24.5c0-0.6,0.4-1.1,1.1-1.1h1.7c0.6,0,1.1,0.4,1.1,1.1v0.2c1.2-0.8,2.8-1.6,4.7-1.6
		c2.8,0,5.1,1.6,5.1,6v19.8c0,0.6-0.4,1.1-1.1,1.1H192c-0.6,0-1.1-0.4-1.1-1.1V136c0-1.6-0.6-2.6-2.3-2.6c-1,0-2.5,0.4-3.7,1v21.4
		c0,0.6-0.4,1.1-1.1,1.1h-1.7C181.6,156.9,181.2,156.4,181.2,155.8z"/>
</g>
<g>
	<path class="st2" d="M35.6,179.6v-15.9c0-0.3,0.1-0.4,0.4-0.4c0.2,0,0.3,0.1,0.4,0.3l6.8,15.2h0.1l6.8-15.2
		c0.1-0.2,0.2-0.3,0.5-0.3c0.2,0,0.4,0.2,0.4,0.4v15.9c0,0.2-0.1,0.4-0.3,0.4s-0.3-0.2-0.3-0.4V165l0,0l-6.5,14.6
		c-0.1,0.2-0.2,0.3-0.4,0.3s-0.3-0.1-0.4-0.3L36.3,165l0,0v14.6c0,0.2-0.1,0.4-0.3,0.4S35.6,179.9,35.6,179.6z"/>
	<path class="st2" d="M59.2,179.7c0-0.1,0-0.2,0.1-0.2l6.1-15.7c0.1-0.2,0.2-0.3,0.5-0.3s0.4,0.1,0.4,0.3l6.1,15.7
		c0,0.1,0,0.2,0,0.2c0,0.2-0.1,0.3-0.3,0.3c-0.2,0-0.3-0.1-0.4-0.3l-2.1-5.5H62l-2.1,5.5c-0.1,0.2-0.2,0.3-0.4,0.3
		C59.4,180,59.2,179.9,59.2,179.7z M69.5,173.6l-3.6-9.2l0,0l-3.6,9.2H69.5z"/>
	<path class="st2" d="M80.8,179.6v-15.8c0-0.2,0.1-0.4,0.3-0.4H86c3.3,0,5.4,1.8,5.4,4.6c0,2.4-1.4,4-3.9,4.5l4.2,6.8
		c0,0.1,0.1,0.2,0.1,0.3c0,0.2-0.1,0.3-0.3,0.3c-0.2,0-0.2-0.1-0.3-0.2l-4.4-7.1c-0.2,0-0.5,0-0.7,0h-4.5v6.9c0,0.2-0.1,0.4-0.4,0.4
		C80.9,180,80.8,179.9,80.8,179.6z M86,172.1c2.9,0,4.7-1.5,4.7-4s-1.8-4-4.7-4h-4.5v8H86z"/>
	<path class="st2" d="M99.2,179.7c0-0.1,0-0.2,0.1-0.2l6.1-15.7c0.1-0.2,0.2-0.3,0.5-0.3s0.4,0.1,0.4,0.3l6.1,15.7
		c0,0.1,0,0.2,0,0.2c0,0.2-0.1,0.3-0.3,0.3c-0.2,0-0.3-0.1-0.4-0.3l-2.1-5.5H102l-2.1,5.5c-0.1,0.2-0.2,0.3-0.4,0.3
		C99.3,180,99.2,179.9,99.2,179.7z M109.4,173.6l-3.6-9.2l0,0l-3.6,9.2H109.4z"/>
	<path class="st2" d="M122.9,179.6v-15.5h-5.7c-0.2,0-0.3-0.1-0.3-0.3s0.1-0.3,0.3-0.3h12.2c0.2,0,0.3,0.1,0.3,0.3s-0.1,0.3-0.3,0.3
		h-5.7v15.5c0,0.2-0.1,0.4-0.4,0.4C123,180,122.9,179.9,122.9,179.6z"/>
	<path class="st2" d="M137.7,179.6v-16c0-0.2,0.1-0.4,0.3-0.4s0.4,0.1,0.4,0.4v7.4h10.8v-7.4c0-0.2,0.1-0.4,0.4-0.4
		c0.2,0,0.3,0.1,0.3,0.4v16c0,0.2-0.1,0.4-0.3,0.4s-0.4-0.1-0.4-0.4v-7.9h-10.8v7.9c0,0.2-0.1,0.4-0.4,0.4
		C137.8,180,137.7,179.9,137.7,179.6z"/>
	<path class="st2" d="M158.5,171.6c0-5.1,2.9-8.4,7.4-8.4s7.4,3.3,7.4,8.4c0,5.1-2.9,8.4-7.4,8.4S158.5,176.8,158.5,171.6z
		 M172.5,171.6c0-4.7-2.6-7.7-6.6-7.7c-4.1,0-6.7,3-6.7,7.7s2.6,7.7,6.7,7.7S172.5,176.3,172.5,171.6z"/>
	<path class="st2" d="M181.9,179.6v-15.9c0-0.2,0.2-0.4,0.4-0.4s0.3,0.1,0.4,0.3l10.8,14.9h0.1v-14.8c0-0.2,0.1-0.4,0.3-0.4
		s0.4,0.1,0.4,0.4v16c0,0.2-0.1,0.3-0.3,0.3s-0.2-0.1-0.4-0.2l-10.9-15.1h-0.1v14.9c0,0.2-0.1,0.4-0.4,0.4
		C182,180,181.9,179.9,181.9,179.6z"/>
</g>
<image style="overflow:visible;" width="795" height="493" xlink:href="AmsterRun-1.png"  transform="matrix(0.24 0 0 0.24 38.1497 7.16)">
</image>
</svg>
